<mxfile host="app.diagrams.net" modified="2023-01-16T09:22:05.396Z" agent="5.0 (Windows NT 10.0; Win64; x64) AppleWebKit/537.36 (KHTML, like Gecko) Chrome/109.0.0.0 Safari/537.36" etag="VYy3AqN6SfoZwWkFZvSh" version="20.8.5" type="github">
  <diagram id="prtHgNgQTEPvFCAcTncT" name="高并发">
    <mxGraphModel dx="2103" dy="721" grid="1" gridSize="10" guides="1" tooltips="1" connect="1" arrows="1" fold="1" page="1" pageScale="1" pageWidth="827" pageHeight="1169" math="0" shadow="0">
      <root>
        <mxCell id="0" />
        <mxCell id="1" parent="0" />
        <mxCell id="QJXowZmTNdiRNg8uhn4s-9" value="用户" style="text;html=1;align=center;verticalAlign=middle;resizable=0;points=[];autosize=1;strokeColor=none;fillColor=none;fontSize=18;" parent="1" vertex="1">
          <mxGeometry x="-750" y="485" width="60" height="40" as="geometry" />
        </mxCell>
        <mxCell id="QJXowZmTNdiRNg8uhn4s-10" value="" style="endArrow=classic;html=1;rounded=0;fontSize=18;entryX=0;entryY=0.5;entryDx=0;entryDy=0;" parent="1" source="QJXowZmTNdiRNg8uhn4s-9" edge="1">
          <mxGeometry width="50" height="50" relative="1" as="geometry">
            <mxPoint x="-560" y="535" as="sourcePoint" />
            <mxPoint x="-540" y="505" as="targetPoint" />
          </mxGeometry>
        </mxCell>
        <mxCell id="QJXowZmTNdiRNg8uhn4s-12" value="web" style="shape=tape;whiteSpace=wrap;html=1;fontSize=18;size=0;fillColor=#647687;fontColor=#ffffff;strokeColor=#314354;" parent="1" vertex="1">
          <mxGeometry x="-410" y="410" width="90" height="30" as="geometry" />
        </mxCell>
        <mxCell id="QJXowZmTNdiRNg8uhn4s-13" value="web" style="shape=tape;whiteSpace=wrap;html=1;fontSize=18;size=0;fillColor=#647687;fontColor=#ffffff;strokeColor=#314354;" parent="1" vertex="1">
          <mxGeometry x="-410" y="490" width="90" height="30" as="geometry" />
        </mxCell>
        <mxCell id="QJXowZmTNdiRNg8uhn4s-14" value="web" style="shape=tape;whiteSpace=wrap;html=1;fontSize=18;size=0;fillColor=#647687;fontColor=#ffffff;strokeColor=#314354;" parent="1" vertex="1">
          <mxGeometry x="-410" y="570" width="90" height="30" as="geometry" />
        </mxCell>
        <mxCell id="QJXowZmTNdiRNg8uhn4s-29" style="edgeStyle=orthogonalEdgeStyle;rounded=0;orthogonalLoop=1;jettySize=auto;html=1;exitX=1;exitY=0;exitDx=0;exitDy=0;entryX=0;entryY=0;entryDx=0;entryDy=0;fontSize=18;strokeWidth=3;" parent="1" source="QJXowZmTNdiRNg8uhn4s-20" target="QJXowZmTNdiRNg8uhn4s-21" edge="1">
          <mxGeometry relative="1" as="geometry" />
        </mxCell>
        <mxCell id="QJXowZmTNdiRNg8uhn4s-20" value="控制层" style="rounded=0;whiteSpace=wrap;html=1;fontSize=18;fillColor=#bac8d3;strokeColor=#23445d;" parent="1" vertex="1">
          <mxGeometry x="-570" y="400" width="90" height="300" as="geometry" />
        </mxCell>
        <mxCell id="QJXowZmTNdiRNg8uhn4s-33" style="edgeStyle=orthogonalEdgeStyle;rounded=0;orthogonalLoop=1;jettySize=auto;html=1;exitX=1;exitY=0;exitDx=0;exitDy=0;entryX=0;entryY=0;entryDx=0;entryDy=0;strokeWidth=3;fontSize=18;" parent="1" source="QJXowZmTNdiRNg8uhn4s-21" target="QJXowZmTNdiRNg8uhn4s-22" edge="1">
          <mxGeometry relative="1" as="geometry" />
        </mxCell>
        <mxCell id="QJXowZmTNdiRNg8uhn4s-21" value="业务层" style="rounded=0;whiteSpace=wrap;html=1;fontSize=18;fillColor=#d5e8d4;gradientColor=#97d077;strokeColor=#82b366;" parent="1" vertex="1">
          <mxGeometry x="-300" y="400" width="100" height="300" as="geometry" />
        </mxCell>
        <mxCell id="QJXowZmTNdiRNg8uhn4s-35" style="edgeStyle=orthogonalEdgeStyle;rounded=0;orthogonalLoop=1;jettySize=auto;html=1;entryX=0;entryY=0.5;entryDx=0;entryDy=0;strokeWidth=3;fontSize=18;exitX=1;exitY=0.5;exitDx=0;exitDy=0;" parent="1" source="QJXowZmTNdiRNg8uhn4s-22" target="QJXowZmTNdiRNg8uhn4s-23" edge="1">
          <mxGeometry relative="1" as="geometry">
            <mxPoint x="20" y="400" as="sourcePoint" />
            <Array as="points">
              <mxPoint x="80" y="550" />
              <mxPoint x="80" y="550" />
            </Array>
          </mxGeometry>
        </mxCell>
        <mxCell id="QJXowZmTNdiRNg8uhn4s-22" value="数据层" style="rounded=0;whiteSpace=wrap;html=1;fontSize=18;fillColor=#f8cecc;strokeColor=#b85450;" parent="1" vertex="1">
          <mxGeometry x="-70" y="400" width="90" height="300" as="geometry" />
        </mxCell>
        <mxCell id="QJXowZmTNdiRNg8uhn4s-23" value="数据库" style="rounded=0;whiteSpace=wrap;html=1;fontSize=18;fillColor=#1ba1e2;fontColor=#ffffff;strokeColor=#006EAF;" parent="1" vertex="1">
          <mxGeometry x="90" y="400" width="110" height="300" as="geometry" />
        </mxCell>
        <mxCell id="QJXowZmTNdiRNg8uhn4s-26" value="" style="endArrow=classic;html=1;rounded=0;fontSize=18;entryX=0;entryY=0.35;entryDx=0;entryDy=0;entryPerimeter=0;exitX=1.004;exitY=0.095;exitDx=0;exitDy=0;exitPerimeter=0;" parent="1" source="QJXowZmTNdiRNg8uhn4s-20" target="QJXowZmTNdiRNg8uhn4s-12" edge="1">
          <mxGeometry width="50" height="50" relative="1" as="geometry">
            <mxPoint x="-500" y="485" as="sourcePoint" />
            <mxPoint x="-450" y="435" as="targetPoint" />
          </mxGeometry>
        </mxCell>
        <mxCell id="QJXowZmTNdiRNg8uhn4s-27" value="" style="endArrow=classic;html=1;rounded=0;fontSize=18;entryX=0;entryY=0.5;entryDx=0;entryDy=0;entryPerimeter=0;exitX=1;exitY=0.5;exitDx=0;exitDy=0;" parent="1" source="QJXowZmTNdiRNg8uhn4s-20" target="QJXowZmTNdiRNg8uhn4s-13" edge="1">
          <mxGeometry width="50" height="50" relative="1" as="geometry">
            <mxPoint x="-439.6399999999999" y="441.0799999999999" as="sourcePoint" />
            <mxPoint x="-400" y="439.5" as="targetPoint" />
          </mxGeometry>
        </mxCell>
        <mxCell id="QJXowZmTNdiRNg8uhn4s-28" value="" style="endArrow=classic;html=1;rounded=0;fontSize=18;entryX=0;entryY=0.65;entryDx=0;entryDy=0;entryPerimeter=0;exitX=1.004;exitY=0.904;exitDx=0;exitDy=0;exitPerimeter=0;" parent="1" source="QJXowZmTNdiRNg8uhn4s-20" target="QJXowZmTNdiRNg8uhn4s-14" edge="1">
          <mxGeometry width="50" height="50" relative="1" as="geometry">
            <mxPoint x="-429.6399999999999" y="451.0799999999999" as="sourcePoint" />
            <mxPoint x="-390" y="449.5" as="targetPoint" />
          </mxGeometry>
        </mxCell>
        <mxCell id="QJXowZmTNdiRNg8uhn4s-36" value="业务中心" style="shape=tape;whiteSpace=wrap;html=1;fontSize=18;size=0;fillColor=#647687;fontColor=#ffffff;strokeColor=#314354;" parent="1" vertex="1">
          <mxGeometry x="-180" y="410" width="90" height="30" as="geometry" />
        </mxCell>
        <mxCell id="QJXowZmTNdiRNg8uhn4s-37" value="业务中心" style="shape=tape;whiteSpace=wrap;html=1;fontSize=18;size=0;fillColor=#647687;fontColor=#ffffff;strokeColor=#314354;" parent="1" vertex="1">
          <mxGeometry x="-180" y="490" width="90" height="30" as="geometry" />
        </mxCell>
        <mxCell id="QJXowZmTNdiRNg8uhn4s-38" value="业务中心" style="shape=tape;whiteSpace=wrap;html=1;fontSize=18;size=0;fillColor=#647687;fontColor=#ffffff;strokeColor=#314354;" parent="1" vertex="1">
          <mxGeometry x="-180" y="570" width="90" height="30" as="geometry" />
        </mxCell>
        <mxCell id="QJXowZmTNdiRNg8uhn4s-39" value="数据库" style="rounded=0;whiteSpace=wrap;html=1;fontSize=18;fillColor=#1ba1e2;fontColor=#ffffff;strokeColor=#006EAF;" parent="1" vertex="1">
          <mxGeometry x="260" y="400" width="110" height="50" as="geometry" />
        </mxCell>
        <mxCell id="QJXowZmTNdiRNg8uhn4s-40" value="数据库" style="rounded=0;whiteSpace=wrap;html=1;fontSize=18;fillColor=#1ba1e2;fontColor=#ffffff;strokeColor=#006EAF;" parent="1" vertex="1">
          <mxGeometry x="260" y="475" width="110" height="50" as="geometry" />
        </mxCell>
        <mxCell id="QJXowZmTNdiRNg8uhn4s-41" value="web备用" style="shape=tape;whiteSpace=wrap;html=1;fontSize=18;size=0;fillColor=#bac8d3;strokeColor=#23445d;" parent="1" vertex="1">
          <mxGeometry x="-410" y="620" width="90" height="30" as="geometry" />
        </mxCell>
        <mxCell id="QJXowZmTNdiRNg8uhn4s-42" value="web备用" style="shape=tape;whiteSpace=wrap;html=1;fontSize=18;size=0;fillColor=#bac8d3;strokeColor=#23445d;" parent="1" vertex="1">
          <mxGeometry x="-410" y="670" width="90" height="30" as="geometry" />
        </mxCell>
        <mxCell id="QJXowZmTNdiRNg8uhn4s-43" value="&lt;font style=&quot;font-size: 15px;&quot;&gt;业务中心备用&lt;/font&gt;" style="shape=tape;whiteSpace=wrap;html=1;fontSize=18;size=0;fillColor=#bac8d3;strokeColor=#23445d;" parent="1" vertex="1">
          <mxGeometry x="-180" y="630" width="90" height="30" as="geometry" />
        </mxCell>
        <mxCell id="QJXowZmTNdiRNg8uhn4s-44" value="&lt;font style=&quot;font-size: 15px;&quot;&gt;业务中心备用&lt;/font&gt;" style="shape=tape;whiteSpace=wrap;html=1;fontSize=18;size=0;fillColor=#bac8d3;strokeColor=#23445d;" parent="1" vertex="1">
          <mxGeometry x="-180" y="680" width="90" height="30" as="geometry" />
        </mxCell>
        <mxCell id="QJXowZmTNdiRNg8uhn4s-50" style="edgeStyle=orthogonalEdgeStyle;rounded=0;orthogonalLoop=1;jettySize=auto;html=1;exitX=0.5;exitY=1;exitDx=0;exitDy=0;entryX=0.5;entryY=0;entryDx=0;entryDy=0;entryPerimeter=0;strokeWidth=1;fontSize=15;" parent="1" source="QJXowZmTNdiRNg8uhn4s-45" target="QJXowZmTNdiRNg8uhn4s-46" edge="1">
          <mxGeometry relative="1" as="geometry" />
        </mxCell>
        <mxCell id="QJXowZmTNdiRNg8uhn4s-51" style="edgeStyle=orthogonalEdgeStyle;rounded=0;orthogonalLoop=1;jettySize=auto;html=1;exitX=0.5;exitY=1;exitDx=0;exitDy=0;entryX=0.5;entryY=0;entryDx=0;entryDy=0;entryPerimeter=0;strokeWidth=1;fontSize=15;" parent="1" source="QJXowZmTNdiRNg8uhn4s-45" target="QJXowZmTNdiRNg8uhn4s-47" edge="1">
          <mxGeometry relative="1" as="geometry" />
        </mxCell>
        <mxCell id="QJXowZmTNdiRNg8uhn4s-52" style="edgeStyle=orthogonalEdgeStyle;rounded=0;orthogonalLoop=1;jettySize=auto;html=1;exitX=0.5;exitY=1;exitDx=0;exitDy=0;entryX=0.5;entryY=0;entryDx=0;entryDy=0;entryPerimeter=0;strokeWidth=1;fontSize=15;" parent="1" source="QJXowZmTNdiRNg8uhn4s-45" target="QJXowZmTNdiRNg8uhn4s-48" edge="1">
          <mxGeometry relative="1" as="geometry" />
        </mxCell>
        <mxCell id="QJXowZmTNdiRNg8uhn4s-45" value="数据库" style="rounded=0;whiteSpace=wrap;html=1;fontSize=18;fillColor=#1ba1e2;fontColor=#ffffff;strokeColor=#006EAF;" parent="1" vertex="1">
          <mxGeometry x="260" y="550" width="110" height="50" as="geometry" />
        </mxCell>
        <mxCell id="QJXowZmTNdiRNg8uhn4s-46" value="sdb" style="shape=cylinder3;whiteSpace=wrap;html=1;boundedLbl=1;backgroundOutline=1;size=15;fontSize=15;fillColor=#b0e3e6;strokeColor=#0e8088;" parent="1" vertex="1">
          <mxGeometry x="260" y="640" width="30" height="40" as="geometry" />
        </mxCell>
        <mxCell id="QJXowZmTNdiRNg8uhn4s-47" value="sdb" style="shape=cylinder3;whiteSpace=wrap;html=1;boundedLbl=1;backgroundOutline=1;size=15;fontSize=15;fillColor=#b0e3e6;strokeColor=#0e8088;" parent="1" vertex="1">
          <mxGeometry x="300" y="640" width="30" height="40" as="geometry" />
        </mxCell>
        <mxCell id="QJXowZmTNdiRNg8uhn4s-48" value="sdb" style="shape=cylinder3;whiteSpace=wrap;html=1;boundedLbl=1;backgroundOutline=1;size=15;fontSize=15;fillColor=#b0e3e6;strokeColor=#0e8088;" parent="1" vertex="1">
          <mxGeometry x="340" y="640" width="30" height="40" as="geometry" />
        </mxCell>
        <mxCell id="QJXowZmTNdiRNg8uhn4s-55" value="nginx" style="rounded=0;whiteSpace=wrap;html=1;fontSize=15;fillColor=#b0e3e6;strokeColor=#0e8088;" parent="1" vertex="1">
          <mxGeometry x="-570" y="180" width="320" height="130" as="geometry" />
        </mxCell>
        <mxCell id="QJXowZmTNdiRNg8uhn4s-56" value="tomchat" style="rounded=1;whiteSpace=wrap;html=1;fontSize=15;" parent="1" vertex="1">
          <mxGeometry x="-560" y="190" width="70" height="30" as="geometry" />
        </mxCell>
        <mxCell id="QJXowZmTNdiRNg8uhn4s-58" value="tomchat" style="rounded=1;whiteSpace=wrap;html=1;fontSize=15;" parent="1" vertex="1">
          <mxGeometry x="-560" y="230" width="70" height="30" as="geometry" />
        </mxCell>
        <mxCell id="QJXowZmTNdiRNg8uhn4s-59" value="tomchat" style="rounded=1;whiteSpace=wrap;html=1;fontSize=15;" parent="1" vertex="1">
          <mxGeometry x="-340" y="230" width="70" height="30" as="geometry" />
        </mxCell>
        <mxCell id="QJXowZmTNdiRNg8uhn4s-60" value="tomchat" style="rounded=1;whiteSpace=wrap;html=1;fontSize=15;" parent="1" vertex="1">
          <mxGeometry x="-340" y="190" width="70" height="30" as="geometry" />
        </mxCell>
        <mxCell id="QJXowZmTNdiRNg8uhn4s-61" value="tomchat" style="rounded=1;whiteSpace=wrap;html=1;fontSize=15;" parent="1" vertex="1">
          <mxGeometry x="-560" y="270" width="70" height="30" as="geometry" />
        </mxCell>
        <mxCell id="QJXowZmTNdiRNg8uhn4s-63" value="tomchat" style="rounded=1;whiteSpace=wrap;html=1;fontSize=15;" parent="1" vertex="1">
          <mxGeometry x="-340" y="270" width="70" height="30" as="geometry" />
        </mxCell>
        <mxCell id="QJXowZmTNdiRNg8uhn4s-64" value="并发访问&amp;nbsp; 10w/qps秒" style="text;html=1;align=center;verticalAlign=middle;resizable=0;points=[];autosize=1;strokeColor=none;fillColor=none;fontSize=18;" parent="1" vertex="1">
          <mxGeometry x="-780" y="530" width="190" height="40" as="geometry" />
        </mxCell>
      </root>
    </mxGraphModel>
  </diagram>
</mxfile>
